{
	"nodes":[{
		"name":"Path",
		"translation":[0.0,
		0.0,
		0.0],
		"rotation":[0.0,
		0.0,
		0.0,
		-1.0],
		"scale":[1.0,
		1.0,
		1.0],
		"children":[1,
		2]
	},
	{
		"mesh":0,
		"name":"Path-bg",
		"translation":[0.0,
		0.0,
		0.0],
		"rotation":[0.0,
		0.0,
		0.0,
		-1.0],
		"scale":[1.0,
		1.0,
		1.0]
	},
	{
		"mesh":1,
		"name":"Path-pict",
		"translation":[0.0,
		0.0,
		0.0],
		"rotation":[0.0,
		0.0,
		0.0,
		-1.0],
		"scale":[1.0,
		1.0,
		1.0]
	}],
	"asset":{
		"version":"2.0",
		"generator":"Created using the official Cinema 4D glTF Exporter 1.000x284978"
	},
	"bufferViews":[{
		"buffer":0,
		"byteOffset":0,
		"byteLength":6372,
		"target":34963
	},
	{
		"buffer":0,
		"byteOffset":6372,
		"byteLength":35712,
		"target":34962,
		"byteStride":32
	},
	{
		"buffer":1,
		"byteOffset":0,
		"byteLength":900,
		"target":34963
	},
	{
		"buffer":1,
		"byteOffset":900,
		"byteLength":4864,
		"target":34962,
		"byteStride":32
	}],
	"scenes":[{
		"nodes":[0]
	}],
	"materials":[{
		"pbrMetallicRoughness":{
			"baseColorTexture":{
				"index":0
			},
			"baseColorFactor":[0.8,
			0.8,
			0.8,
			1.0],
			"metallicFactor":0.0,
			"roughnessFactor":0.5
		},
		"emissiveFactor":[0.0,
		0.0,
		0.0],
		"alphaMode":"OPAQUE",
		"doubleSided":true,
		"name":"bg"
	},
	{
		"pbrMetallicRoughness":{
			"baseColorTexture":{
				"index":1
			},
			"baseColorFactor":[0.8,
			0.8,
			0.8,
			1.0],
			"metallicFactor":0.0,
			"roughnessFactor":0.5
		},
		"emissiveFactor":[0.0,
		0.0,
		0.0],
		"alphaMode":"OPAQUE",
		"doubleSided":true,
		"name":"pict"
	}],
	"meshes":[{
		"name":"Path-bg",
		"primitives":[{
			"attributes":{
				"POSITION":1,
				"NORMAL":2,
				"TEXCOORD_0":3
			},
			"indices":0,
			"material":0
		}]
	},
	{
		"name":"Path-pict",
		"primitives":[{
			"attributes":{
				"POSITION":5,
				"NORMAL":6,
				"TEXCOORD_0":7
			},
			"indices":4,
			"material":1
		}]
	}],
	"accessors":[{
		"bufferView":0,
		"type":"SCALAR",
		"componentType":5123,
		"count":3186,
		"byteOffset":0,
		"min":[0],
		"max":[1115]
	},
	{
		"bufferView":1,
		"type":"VEC3",
		"componentType":5126,
		"count":1116,
		"byteOffset":0,
		"min":[-349.6128234863281,
		-424.37042236328127,
		-87.5],
		"max":[396.8188781738281,
		403.8320617675781,
		12.5]
	},
	{
		"bufferView":1,
		"type":"VEC3",
		"componentType":5126,
		"count":1116,
		"byteOffset":12,
		"min":[-0.9998750686645508,
		-0.9998750686645508,
		-1.0],
		"max":[0.9998750686645508,
		0.9999688267707825,
		0.7493438124656677]
	},
	{
		"bufferView":1,
		"type":"VEC2",
		"componentType":5126,
		"count":1116,
		"byteOffset":24,
		"min":[-0.19922563433647157,
		-0.30766409635543826],
		"max":[1.293637752532959,
		1.348740816116333]
	},
	{
		"bufferView":2,
		"type":"SCALAR",
		"componentType":5123,
		"count":450,
		"byteOffset":0,
		"min":[0],
		"max":[151]
	},
	{
		"bufferView":3,
		"type":"VEC3",
		"componentType":5126,
		"count":152,
		"byteOffset":0,
		"min":[-337.10455322265627,
		-411.50579833984377,
		12.5],
		"max":[384.29803466796877,
		389.0187072753906,
		12.5]
	},
	{
		"bufferView":3,
		"type":"VEC3",
		"componentType":5126,
		"count":152,
		"byteOffset":12,
		"min":[0.0,
		0.0,
		1.0],
		"max":[0.0,
		0.0,
		1.0]
	},
	{
		"bufferView":3,
		"type":"VEC2",
		"componentType":5126,
		"count":152,
		"byteOffset":24,
		"min":[0.2007107138633728,
		0.10988245904445648],
		"max":[0.7732523679733276,
		0.9024810194969177]
	}],
	"buffers":[{
		"uri":"data:application/octet-stream;base64,",
		"byteLength":42084
	},
	{
		"uri":"data:application/octet-stream;base64,",
		"byteLength":5764
	}],
	"images":[{
		"uri":"data:image/jpeg;base64,"
	},
	{
		"uri":"data:image/jpeg;base64,"
	}],
	"samplers":[{
		"magFilter":9729,
		"minFilter":9729,
		"wrapS":10497,
		"wrapT":10497
	},
	{
		"magFilter":9729,
		"minFilter":9729,
		"wrapS":10497,
		"wrapT":10497
	}],
	"textures":[{
		"sampler":0,
		"source":0
	},
	{
		"sampler":1,
		"source":1
	}]
}