{
	"nodes":[{
		"name":"Path",
		"translation":[-19.652982711791993,
		14.299280166625977,
		12.5],
		"rotation":[8.553663476886141e-27,
		-1.0,
		-1.199040866595169e-13,
		-7.133754849862617e-14],
		"scale":[1.0,
		1.0,
		1.0],
		"children":[1,
		2]
	},
	{
		"mesh":0,
		"name":"Path-bg",
		"translation":[-4.2058544846207469e-16,
		-2.1901807954811337e-23,
		0.0],
		"rotation":[0.0,
		0.0,
		0.0,
		-1.0],
		"scale":[1.0,
		1.0,
		1.0]
	},
	{
		"mesh":1,
		"name":"Path-Mat",
		"translation":[-4.2058544846207469e-16,
		-2.1901807954811337e-23,
		0.0],
		"rotation":[0.0,
		0.0,
		0.0,
		-1.0],
		"scale":[1.0,
		1.0,
		1.0]
	}],
	"asset":{
		"version":"2.0",
		"generator":"Created using the official Cinema 4D glTF Exporter 1.000x284978"
	},
	"bufferViews":[{
		"buffer":0,
		"byteOffset":0,
		"byteLength":5742,
		"target":34963
	},
	{
		"buffer":0,
		"byteOffset":5744,
		"byteLength":33696,
		"target":34962,
		"byteStride":32
	},
	{
		"buffer":1,
		"byteOffset":0,
		"byteLength":810,
		"target":34963
	},
	{
		"buffer":1,
		"byteOffset":812,
		"byteLength":4384,
		"target":34962,
		"byteStride":32
	}],
	"scenes":[{
		"nodes":[0]
	}],
	"materials":[{
		"pbrMetallicRoughness":{
			"baseColorTexture":{
				"index":0
			},
			"baseColorFactor":[0.8,
			0.8,
			0.8,
			1.0],
			"metallicFactor":0.0,
			"roughnessFactor":0.5
		},
		"emissiveFactor":[0.0,
		0.0,
		0.0],
		"alphaMode":"OPAQUE",
		"doubleSided":true,
		"name":"bg"
	},
	{
		"pbrMetallicRoughness":{
			"baseColorTexture":{
				"index":1
			},
			"baseColorFactor":[0.8,
			0.8,
			0.8,
			1.0],
			"metallicFactor":0.0,
			"roughnessFactor":0.5
		},
		"emissiveFactor":[0.0,
		0.0,
		0.0],
		"alphaMode":"OPAQUE",
		"doubleSided":true,
		"name":"Mat"
	}],
	"meshes":[{
		"name":"Path-bg",
		"primitives":[{
			"attributes":{
				"POSITION":1,
				"NORMAL":2,
				"TEXCOORD_0":3
			},
			"indices":0,
			"material":0
		}]
	},
	{
		"name":"Path-Mat",
		"primitives":[{
			"attributes":{
				"POSITION":5,
				"NORMAL":6,
				"TEXCOORD_0":7
			},
			"indices":4,
			"material":1
		}]
	}],
	"accessors":[{
		"bufferView":0,
		"type":"SCALAR",
		"componentType":5123,
		"count":2871,
		"byteOffset":0,
		"min":[0],
		"max":[1052]
	},
	{
		"bufferView":1,
		"type":"VEC3",
		"componentType":5126,
		"count":1053,
		"byteOffset":0,
		"min":[-477.06317138671877,
		-22.931350708007814,
		-5.773159728050814e-14],
		"max":[431.08685302734377,
		826.429443359375,
		100.0]
	},
	{
		"bufferView":1,
		"type":"VEC3",
		"componentType":5126,
		"count":1053,
		"byteOffset":12,
		"min":[-0.9995312690734863,
		-0.9993438124656677,
		-0.7553750276565552],
		"max":[0.9999688267707825,
		0.9994375705718994,
		1.0]
	},
	{
		"bufferView":1,
		"type":"VEC2",
		"componentType":5126,
		"count":1053,
		"byteOffset":24,
		"min":[0.0,
		0.0],
		"max":[1.0,
		1.0]
	},
	{
		"bufferView":2,
		"type":"SCALAR",
		"componentType":5123,
		"count":405,
		"byteOffset":0,
		"min":[0],
		"max":[136]
	},
	{
		"bufferView":3,
		"type":"VEC3",
		"componentType":5126,
		"count":137,
		"byteOffset":0,
		"min":[-463.7206726074219,
		-10.424659729003907,
		-5.773159728050814e-14],
		"max":[417.85040283203127,
		812.8994140625,
		3.108624468950438e-14]
	},
	{
		"bufferView":3,
		"type":"VEC3",
		"componentType":5126,
		"count":137,
		"byteOffset":12,
		"min":[0.0,
		0.0,
		-1.0],
		"max":[0.0,
		0.0,
		-1.0]
	},
	{
		"bufferView":3,
		"type":"VEC2",
		"componentType":5126,
		"count":137,
		"byteOffset":24,
		"min":[0.1785220205783844,
		0.09536228328943253],
		"max":[0.8870861530303955,
		0.9195393323898315]
	}],
	"buffers":[{
		"uri":"data:application/octet-stream;base64,",
		"byteLength":39440
	},
	{
		"uri":"data:application/octet-stream;base64,",
		"byteLength":5196
	}],
	"images":[{
		"uri":"data:image/jpeg;base64,"
	},
	{
		"uri":"data:image/jpeg;base64,"
	}],
	"samplers":[{
		"magFilter":9729,
		"minFilter":9729,
		"wrapS":10497,
		"wrapT":10497
	},
	{
		"magFilter":9729,
		"minFilter":9729,
		"wrapS":10497,
		"wrapT":10497
	}],
	"textures":[{
		"sampler":0,
		"source":0
	},
	{
		"sampler":1,
		"source":1
	}]
}