{
	"nodes":[{
		"name":"Path",
		"translation":[0.0,
		15.518218994140625,
		-2.8730108737945558],
		"rotation":[0.0,
		0.0,
		0.0,
		-1.0],
		"scale":[1.0,
		1.0,
		1.0],
		"children":[1,
		2]
	},
	{
		"mesh":0,
		"name":"Path-bg",
		"translation":[0.0,
		0.0,
		0.0],
		"rotation":[0.0,
		0.0,
		0.0,
		-1.0],
		"scale":[1.0,
		1.0,
		1.0]
	},
	{
		"mesh":1,
		"name":"Path-Mat",
		"translation":[0.0,
		0.0,
		0.0],
		"rotation":[0.0,
		0.0,
		0.0,
		-1.0],
		"scale":[1.0,
		1.0,
		1.0]
	}],
	"asset":{
		"version":"2.0",
		"generator":"Created using the official Cinema 4D glTF Exporter 1.000x284978"
	},
	"bufferViews":[{
		"buffer":0,
		"byteOffset":0,
		"byteLength":4944,
		"target":34963
	},
	{
		"buffer":0,
		"byteOffset":4944,
		"byteLength":28480,
		"target":34962,
		"byteStride":32
	},
	{
		"buffer":1,
		"byteOffset":0,
		"byteLength":696,
		"target":34963
	},
	{
		"buffer":1,
		"byteOffset":696,
		"byteLength":3776,
		"target":34962,
		"byteStride":32
	}],
	"scenes":[{
		"nodes":[0]
	}],
	"materials":[{
		"pbrMetallicRoughness":{
			"baseColorTexture":{
				"index":0
			},
			"baseColorFactor":[0.8,
			0.8,
			0.8,
			1.0],
			"metallicFactor":0.0,
			"roughnessFactor":0.5
		},
		"emissiveFactor":[0.0,
		0.0,
		0.0],
		"alphaMode":"OPAQUE",
		"doubleSided":true,
		"name":"bg"
	},
	{
		"pbrMetallicRoughness":{
			"baseColorTexture":{
				"index":1
			},
			"baseColorFactor":[0.8,
			0.8,
			0.8,
			1.0],
			"metallicFactor":0.0,
			"roughnessFactor":0.5
		},
		"emissiveFactor":[0.0,
		0.0,
		0.0],
		"alphaMode":"OPAQUE",
		"doubleSided":true,
		"name":"Mat"
	}],
	"meshes":[{
		"name":"Path-bg",
		"primitives":[{
			"attributes":{
				"POSITION":1,
				"NORMAL":2,
				"TEXCOORD_0":3
			},
			"indices":0,
			"material":0
		}]
	},
	{
		"name":"Path-Mat",
		"primitives":[{
			"attributes":{
				"POSITION":5,
				"NORMAL":6,
				"TEXCOORD_0":7
			},
			"indices":4,
			"material":1
		}]
	}],
	"accessors":[{
		"bufferView":0,
		"type":"SCALAR",
		"componentType":5123,
		"count":2472,
		"byteOffset":0,
		"min":[0],
		"max":[889]
	},
	{
		"bufferView":1,
		"type":"VEC3",
		"componentType":5126,
		"count":890,
		"byteOffset":0,
		"min":[-442.1678161621094,
		-17.912649154663087,
		-42.55261993408203],
		"max":[446.5921936035156,
		771.5823364257813,
		57.44738006591797]
	},
	{
		"bufferView":1,
		"type":"VEC3",
		"componentType":5126,
		"count":890,
		"byteOffset":12,
		"min":[-0.9998750686645508,
		-0.9993438124656677,
		-1.0],
		"max":[0.9998750686645508,
		0.9998750686645508,
		0.7553125619888306]
	},
	{
		"bufferView":1,
		"type":"VEC2",
		"componentType":5126,
		"count":890,
		"byteOffset":24,
		"min":[0.0,
		0.0],
		"max":[1.0,
		1.0]
	},
	{
		"bufferView":2,
		"type":"SCALAR",
		"componentType":5123,
		"count":348,
		"byteOffset":0,
		"min":[0],
		"max":[117]
	},
	{
		"bufferView":3,
		"type":"VEC3",
		"componentType":5126,
		"count":118,
		"byteOffset":0,
		"min":[-429.3226623535156,
		-4.893100261688232,
		57.44738006591797],
		"max":[433.25457763671877,
		758.2758178710938,
		57.44738006591797]
	},
	{
		"bufferView":3,
		"type":"VEC3",
		"componentType":5126,
		"count":118,
		"byteOffset":12,
		"min":[0.0,
		0.0,
		1.0],
		"max":[0.0,
		0.0,
		1.0]
	},
	{
		"bufferView":3,
		"type":"VEC2",
		"componentType":5126,
		"count":118,
		"byteOffset":24,
		"min":[0.1388949304819107,
		0.13714340329170228],
		"max":[0.8321378827095032,
		0.8970456123352051]
	}],
	"buffers":[{
		"uri":"data:application/octet-stream;base64,",
		"byteLength":33424
	},
	{
		"uri":"data:application/octet-stream;base64,",
		"byteLength":4472
	}],
	"images":[{
		"uri":"data:image/jpeg;base64,"
	},
	{
		"uri":"data:image/jpeg;base64,"
	}],
	"samplers":[{
		"magFilter":9729,
		"minFilter":9729,
		"wrapS":10497,
		"wrapT":10497
	},
	{
		"magFilter":9729,
		"minFilter":9729,
		"wrapS":10497,
		"wrapT":10497
	}],
	"textures":[{
		"sampler":0,
		"source":0
	},
	{
		"sampler":1,
		"source":1
	}]
}