{
	"nodes":[{
		"name":"Path",
		"translation":[0.0,
		-0.04249123856425285,
		3.088414430618286],
		"rotation":[0.0,
		0.0,
		0.0,
		-1.0],
		"scale":[1.0,
		1.0,
		1.0],
		"children":[1,
		2]
	},
	{
		"mesh":0,
		"name":"Path-bg",
		"translation":[0.0,
		0.0,
		0.0],
		"rotation":[0.0,
		0.0,
		0.0,
		-1.0],
		"scale":[1.0,
		1.0,
		1.0]
	},
	{
		"mesh":1,
		"name":"Path-Mat",
		"translation":[0.0,
		0.0,
		0.0],
		"rotation":[0.0,
		0.0,
		0.0,
		-1.0],
		"scale":[1.0,
		1.0,
		1.0]
	}],
	"asset":{
		"version":"2.0",
		"generator":"Created using the official Cinema 4D glTF Exporter 1.000x284978"
	},
	"bufferViews":[{
		"buffer":0,
		"byteOffset":0,
		"byteLength":6960,
		"target":34963
	},
	{
		"buffer":0,
		"byteOffset":6960,
		"byteLength":37760,
		"target":34962,
		"byteStride":32
	},
	{
		"buffer":1,
		"byteOffset":0,
		"byteLength":984,
		"target":34963
	},
	{
		"buffer":1,
		"byteOffset":984,
		"byteLength":5312,
		"target":34962,
		"byteStride":32
	}],
	"scenes":[{
		"nodes":[0]
	}],
	"materials":[{
		"pbrMetallicRoughness":{
			"baseColorTexture":{
				"index":0
			},
			"baseColorFactor":[0.8,
			0.8,
			0.8,
			1.0],
			"metallicFactor":0.0,
			"roughnessFactor":0.5
		},
		"emissiveFactor":[0.0,
		0.0,
		0.0],
		"alphaMode":"OPAQUE",
		"doubleSided":true,
		"name":"bg"
	},
	{
		"pbrMetallicRoughness":{
			"baseColorTexture":{
				"index":1
			},
			"baseColorFactor":[0.8,
			0.8,
			0.8,
			1.0],
			"metallicFactor":0.0,
			"roughnessFactor":0.5
		},
		"emissiveFactor":[0.0,
		0.0,
		0.0],
		"alphaMode":"OPAQUE",
		"doubleSided":true,
		"name":"Mat"
	}],
	"meshes":[{
		"name":"Path-bg",
		"primitives":[{
			"attributes":{
				"POSITION":1,
				"NORMAL":2,
				"TEXCOORD_0":3
			},
			"indices":0,
			"material":0
		}]
	},
	{
		"name":"Path-Mat",
		"primitives":[{
			"attributes":{
				"POSITION":5,
				"NORMAL":6,
				"TEXCOORD_0":7
			},
			"indices":4,
			"material":1
		}]
	}],
	"accessors":[{
		"bufferView":0,
		"type":"SCALAR",
		"componentType":5123,
		"count":3480,
		"byteOffset":0,
		"min":[0],
		"max":[1179]
	},
	{
		"bufferView":1,
		"type":"VEC3",
		"componentType":5126,
		"count":1180,
		"byteOffset":0,
		"min":[-326.5047912597656,
		13.237217903137207,
		-56.42182922363281],
		"max":[383.6230773925781,
		778.3255615234375,
		43.57817077636719]
	},
	{
		"bufferView":1,
		"type":"VEC3",
		"componentType":5126,
		"count":1180,
		"byteOffset":12,
		"min":[-0.9999688267707825,
		-0.9999688267707825,
		-1.0],
		"max":[0.9994375705718994,
		0.9996563196182251,
		0.7537500262260437]
	},
	{
		"bufferView":1,
		"type":"VEC2",
		"componentType":5126,
		"count":1180,
		"byteOffset":24,
		"min":[0.0,
		0.0],
		"max":[1.0,
		1.0]
	},
	{
		"bufferView":2,
		"type":"SCALAR",
		"componentType":5123,
		"count":492,
		"byteOffset":0,
		"min":[0],
		"max":[165]
	},
	{
		"bufferView":3,
		"type":"VEC3",
		"componentType":5126,
		"count":166,
		"byteOffset":0,
		"min":[-313.9881896972656,
		25.757667541503908,
		43.57817077636719],
		"max":[371.1190490722656,
		765.8214111328125,
		43.57817077636719]
	},
	{
		"bufferView":3,
		"type":"VEC3",
		"componentType":5126,
		"count":166,
		"byteOffset":12,
		"min":[0.0,
		0.0,
		1.0],
		"max":[0.0,
		0.0,
		1.0]
	},
	{
		"bufferView":3,
		"type":"VEC2",
		"componentType":5126,
		"count":166,
		"byteOffset":24,
		"min":[0.23376378417015077,
		0.16389651596546174],
		"max":[0.7899510860443115,
		0.8966933488845825]
	}],
	"buffers":[{
		"uri":"data:application/octet-stream;base64,",
		"byteLength":44720
	},
	{
		"uri":"data:application/octet-stream;base64,",
		"byteLength":6296
	}],
	"images":[{
		"uri":"data:image/jpeg;base64,"
	},
	{
		"uri":"data:image/jpeg;base64,"
	}],
	"samplers":[{
		"magFilter":9729,
		"minFilter":9729,
		"wrapS":10497,
		"wrapT":10497
	},
	{
		"magFilter":9729,
		"minFilter":9729,
		"wrapS":10497,
		"wrapT":10497
	}],
	"textures":[{
		"sampler":0,
		"source":0
	},
	{
		"sampler":1,
		"source":1
	}]
}