{
	"asset":{
		"version":"2.0",
		"generator":"Created using the official Cinema 4D glTF Exporter 1.000x284978"
	},
	"scenes":[{
		"nodes":[0]
	}],
	"nodes":[{
		"name":"Torus",
		"translation":[0.0,
		0.0,
		0.0],
		"scale":[1.0,
		1.0,
		1.0],
		"rotation":[0.0,
		0.0,
		0.0,
		-1.0],
		"mesh":0
	}],
	"meshes":[{
		"name":"Torus",
		"primitives":[{
			"attributes":{
				"POSITION":1,
				"NORMAL":2,
				"TEXCOORD_0":3
			},
			"indices":0,
			"material":0
		}]
	}],
	"accessors":[{
		"bufferView":0,
		"type":"SCALAR",
		"componentType":5123,
		"max":[560],
		"count":3072,
		"byteOffset":0,
		"min":[0]
	},
	{
		"bufferView":1,
		"type":"VEC3",
		"componentType":5126,
		"max":[150.0,
		50.0,
		150.0],
		"count":561,
		"byteOffset":0,
		"min":[-150.0,
		-50.0,
		-150.0]
	},
	{
		"bufferView":1,
		"type":"VEC3",
		"componentType":5126,
		"max":[1.0,
		0.9999786615371704,
		1.0],
		"count":561,
		"byteOffset":12,
		"min":[-1.0,
		-0.9999786615371704,
		-1.0]
	},
	{
		"bufferView":1,
		"type":"VEC2",
		"componentType":5126,
		"max":[1.0,
		1.0],
		"count":561,
		"byteOffset":24,
		"min":[0.0,
		0.0]
	}],
	"bufferViews":[{
		"buffer":0,
		"byteOffset":0,
		"target":34963,
		"byteLength":6144
	},
	{
		"buffer":0,
		"byteOffset":6144,
		"target":34962,
		"byteLength":17952,
		"byteStride":32
	}],
	"buffers":[{
		"uri":"data:application/octet-stream;base64,",
		"byteLength":24096
	}],
	"materials":[{
		"pbrMetallicRoughness":{
			"baseColorFactor":[0.9489795918367348,
			0.9071512902681733,
			0.6352673300725249,
			1.0],
			"metallicFactor":0.85,
			"roughnessFactor":0.09999999999999999
		},
		"emissiveFactor":[0.0,
		0.0,
		0.0],
		"alphaMode":"OPAQUE",
		"doubleSided":true,
		"name":"Gold"
	}]
}