{
	"asset":{
		"version":"2.0",
		"generator":"Created using the official Cinema 4D glTF Exporter 1.000x284978"
	},
	"scenes":[{
		"nodes":[0,
		1,
		2,
		4]
	}],
	"nodes":[{
		"name":"Sphere.1",
		"translation":[-620.9373168945313,
		197.53433227539063,
		-225.86732482910157],
		"rotation":[-0.20777074992656709,
		0.0,
		0.0,
		-0.978177547454834],
		"scale":[1.0,
		1.0,
		1.0],
		"mesh":0
	},
	{
		"name":"Sphere",
		"translation":[-620.9373168945313,
		197.53433227539063,
		-225.86732482910157],
		"rotation":[-0.20777074992656709,
		0.0,
		0.0,
		-0.978177547454834],
		"scale":[1.0,
		1.0,
		1.0],
		"mesh":1
	},
	{
		"name":"Subdivision Surface",
		"translation":[0.0,
		0.0,
		0.0],
		"rotation":[0.0,
		0.0,
		0.0,
		-1.0],
		"scale":[1.0,
		1.0,
		1.0],
		"children":[3]
	},
	{
		"name":"Sweep",
		"translation":[0.0,
		0.0,
		0.0],
		"rotation":[0.0,
		0.0,
		0.0,
		-1.0],
		"scale":[1.0,
		1.0,
		1.0],
		"mesh":2
	},
	{
		"name":"Null",
		"translation":[-280.21319580078127,
		97.21499633789063,
		-281.83172607421877],
		"rotation":[0.0,
		0.0,
		0.0,
		-1.0],
		"scale":[1.0,
		1.0,
		1.0],
		"children":[5,
		6,
		7,
		8]
	},
	{
		"name":"Cube.3",
		"translation":[-280.21319580078127,
		0.0,
		281.83172607421877],
		"rotation":[0.0,
		0.0,
		0.0,
		-1.0],
		"scale":[1.0,
		1.0,
		1.0],
		"mesh":3
	},
	{
		"name":"Cube.2",
		"translation":[-280.21319580078127,
		0.0,
		-281.83172607421877],
		"rotation":[0.0,
		0.0,
		0.0,
		-1.0],
		"scale":[1.0,
		1.0,
		1.0],
		"mesh":4
	},
	{
		"name":"Cube.1",
		"translation":[280.21319580078127,
		0.0,
		-281.83172607421877],
		"rotation":[0.0,
		0.0,
		0.0,
		-1.0],
		"scale":[1.0,
		1.0,
		1.0],
		"mesh":5
	},
	{
		"name":"Cube",
		"translation":[280.21319580078127,
		0.0,
		281.83172607421877],
		"rotation":[0.0,
		0.0,
		0.0,
		-1.0],
		"scale":[1.0,
		1.0,
		1.0],
		"mesh":6
	}],
	"meshes":[{
		"name":"Sphere.1",
		"primitives":[{
			"attributes":{
				"POSITION":1,
				"NORMAL":2
			},
			"indices":0,
			"material":0
		}]
	},
	{
		"name":"Sphere",
		"primitives":[{
			"attributes":{
				"POSITION":8,
				"NORMAL":9
			},
			"indices":7,
			"material":0
		}]
	},
	{
		"name":"Sweep",
		"primitives":[{
			"attributes":{
				"POSITION":15,
				"NORMAL":16,
				"TEXCOORD_0":17
			},
			"indices":14,
			"material":1
		}]
	},
	{
		"name":"Cube.3",
		"primitives":[{
			"attributes":{
				"POSITION":19,
				"NORMAL":20,
				"TEXCOORD_0":21
			},
			"indices":18,
			"material":2
		}]
	},
	{
		"name":"Cube.2",
		"primitives":[{
			"attributes":{
				"POSITION":23,
				"NORMAL":24,
				"TEXCOORD_0":25
			},
			"indices":22,
			"material":3
		}]
	},
	{
		"name":"Cube.1",
		"primitives":[{
			"attributes":{
				"POSITION":27,
				"NORMAL":28,
				"TEXCOORD_0":29
			},
			"indices":26,
			"material":4
		}]
	},
	{
		"name":"Cube",
		"primitives":[{
			"attributes":{
				"POSITION":31,
				"NORMAL":32,
				"TEXCOORD_0":33
			},
			"indices":30,
			"material":5
		}]
	}],
	"accessors":[{
		"bufferView":0,
		"type":"SCALAR",
		"componentType":5123,
		"count":1584,
		"byteOffset":0,
		"min":[0],
		"max":[265]
	},
	{
		"bufferView":1,
		"type":"VEC3",
		"componentType":5126,
		"count":266,
		"byteOffset":0,
		"min":[-35.0,
		-35.0,
		-35.0],
		"max":[35.0,
		35.0,
		35.0]
	},
	{
		"bufferView":1,
		"type":"VEC3",
		"componentType":5126,
		"count":266,
		"byteOffset":12,
		"min":[-1.0,
		-1.0,
		-1.0],
		"max":[1.0,
		1.0,
		1.0]
	},
	{
		"bufferView":2,
		"type":"SCALAR",
		"componentType":5126,
		"count":91,
		"byteOffset":0,
		"min":[0.0],
		"max":[3.0]
	},
	{
		"bufferView":2,
		"type":"VEC3",
		"componentType":5126,
		"count":91,
		"byteOffset":364,
		"min":[-624.4896240234375,
		197.53433227539063,
		-618.598876953125],
		"max":[62.02579116821289,
		197.53433227539063,
		67.46480560302735]
	},
	{
		"bufferView":3,
		"type":"SCALAR",
		"componentType":5126,
		"count":91,
		"byteOffset":0,
		"min":[0.0],
		"max":[3.0]
	},
	{
		"bufferView":3,
		"type":"VEC4",
		"componentType":5126,
		"count":91,
		"byteOffset":364,
		"min":[-0.6647190451622009,
		-8.659314434476259e-17,
		0.0,
		-1.0],
		"max":[0.999418318271637,
		0.0,
		8.659314434476259e-17,
		0.701753556728363]
	},
	{
		"bufferView":4,
		"type":"SCALAR",
		"componentType":5123,
		"count":1584,
		"byteOffset":0,
		"min":[0],
		"max":[265]
	},
	{
		"bufferView":5,
		"type":"VEC3",
		"componentType":5126,
		"count":266,
		"byteOffset":0,
		"min":[-35.0,
		-35.0,
		-35.0],
		"max":[35.0,
		35.0,
		35.0]
	},
	{
		"bufferView":5,
		"type":"VEC3",
		"componentType":5126,
		"count":266,
		"byteOffset":12,
		"min":[-1.0,
		-1.0,
		-1.0],
		"max":[1.0,
		1.0,
		1.0]
	},
	{
		"bufferView":6,
		"type":"SCALAR",
		"componentType":5126,
		"count":91,
		"byteOffset":0,
		"min":[0.0],
		"max":[3.0]
	},
	{
		"bufferView":6,
		"type":"VEC3",
		"componentType":5126,
		"count":91,
		"byteOffset":364,
		"min":[-624.4896240234375,
		197.53433227539063,
		-618.598876953125],
		"max":[62.02579116821289,
		197.53433227539063,
		67.46480560302735]
	},
	{
		"bufferView":7,
		"type":"SCALAR",
		"componentType":5126,
		"count":91,
		"byteOffset":0,
		"min":[0.0],
		"max":[3.0]
	},
	{
		"bufferView":7,
		"type":"VEC4",
		"componentType":5126,
		"count":91,
		"byteOffset":364,
		"min":[-0.6647190451622009,
		-8.659314434476259e-17,
		0.0,
		-1.0],
		"max":[0.999418318271637,
		0.0,
		8.659314434476259e-17,
		0.701753556728363]
	},
	{
		"bufferView":8,
		"type":"SCALAR",
		"componentType":5123,
		"count":208896,
		"byteOffset":0,
		"min":[0],
		"max":[36079]
	},
	{
		"bufferView":9,
		"type":"VEC3",
		"componentType":5126,
		"count":36080,
		"byteOffset":0,
		"min":[-690.2435302734375,
		179.33938598632813,
		-685.2319946289063],
		"max":[125.70750427246094,
		206.07379150390626,
		130.71900939941407]
	},
	{
		"bufferView":9,
		"type":"VEC3",
		"componentType":5126,
		"count":36080,
		"byteOffset":12,
		"min":[-1.0,
		-1.0,
		-1.0],
		"max":[1.0,
		1.0,
		1.0]
	},
	{
		"bufferView":9,
		"type":"VEC2",
		"componentType":5126,
		"count":36080,
		"byteOffset":24,
		"min":[0.0,
		0.0],
		"max":[1.0,
		1.0]
	},
	{
		"bufferView":10,
		"type":"SCALAR",
		"componentType":5123,
		"count":612,
		"byteOffset":0,
		"min":[0],
		"max":[165]
	},
	{
		"bufferView":11,
		"type":"VEC3",
		"componentType":5126,
		"count":166,
		"byteOffset":0,
		"min":[-25.0,
		-96.0,
		-25.0],
		"max":[25.0,
		96.0,
		25.0]
	},
	{
		"bufferView":11,
		"type":"VEC3",
		"componentType":5126,
		"count":166,
		"byteOffset":12,
		"min":[-0.9832740426063538,
		-0.9865117073059082,
		-0.983273983001709],
		"max":[0.9832740426063538,
		0.9865117073059082,
		0.983273983001709]
	},
	{
		"bufferView":11,
		"type":"VEC2",
		"componentType":5126,
		"count":166,
		"byteOffset":24,
		"min":[0.0,
		0.0],
		"max":[1.0,
		1.0]
	},
	{
		"bufferView":12,
		"type":"SCALAR",
		"componentType":5123,
		"count":612,
		"byteOffset":0,
		"min":[0],
		"max":[165]
	},
	{
		"bufferView":13,
		"type":"VEC3",
		"componentType":5126,
		"count":166,
		"byteOffset":0,
		"min":[-25.0,
		-96.0,
		-25.0],
		"max":[25.0,
		96.0,
		25.0]
	},
	{
		"bufferView":13,
		"type":"VEC3",
		"componentType":5126,
		"count":166,
		"byteOffset":12,
		"min":[-0.9832740426063538,
		-0.9865117073059082,
		-0.983273983001709],
		"max":[0.9832740426063538,
		0.9865117073059082,
		0.983273983001709]
	},
	{
		"bufferView":13,
		"type":"VEC2",
		"componentType":5126,
		"count":166,
		"byteOffset":24,
		"min":[0.0,
		0.0],
		"max":[1.0,
		1.0]
	},
	{
		"bufferView":14,
		"type":"SCALAR",
		"componentType":5123,
		"count":612,
		"byteOffset":0,
		"min":[0],
		"max":[165]
	},
	{
		"bufferView":15,
		"type":"VEC3",
		"componentType":5126,
		"count":166,
		"byteOffset":0,
		"min":[-25.0,
		-96.0,
		-25.0],
		"max":[25.0,
		96.0,
		25.0]
	},
	{
		"bufferView":15,
		"type":"VEC3",
		"componentType":5126,
		"count":166,
		"byteOffset":12,
		"min":[-0.9832740426063538,
		-0.9865117073059082,
		-0.983273983001709],
		"max":[0.9832740426063538,
		0.9865117073059082,
		0.983273983001709]
	},
	{
		"bufferView":15,
		"type":"VEC2",
		"componentType":5126,
		"count":166,
		"byteOffset":24,
		"min":[0.0,
		0.0],
		"max":[1.0,
		1.0]
	},
	{
		"bufferView":16,
		"type":"SCALAR",
		"componentType":5123,
		"count":612,
		"byteOffset":0,
		"min":[0],
		"max":[165]
	},
	{
		"bufferView":17,
		"type":"VEC3",
		"componentType":5126,
		"count":166,
		"byteOffset":0,
		"min":[-25.0,
		-96.0,
		-25.0],
		"max":[25.0,
		96.0,
		25.0]
	},
	{
		"bufferView":17,
		"type":"VEC3",
		"componentType":5126,
		"count":166,
		"byteOffset":12,
		"min":[-0.9832740426063538,
		-0.9865117073059082,
		-0.983273983001709],
		"max":[0.9832740426063538,
		0.9865117073059082,
		0.983273983001709]
	},
	{
		"bufferView":17,
		"type":"VEC2",
		"componentType":5126,
		"count":166,
		"byteOffset":24,
		"min":[0.0,
		0.0],
		"max":[1.0,
		1.0]
	}],
	"bufferViews":[{
		"buffer":0,
		"byteOffset":0,
		"byteLength":3168,
		"target":34963
	},
	{
		"buffer":0,
		"byteOffset":3168,
		"byteLength":6384,
		"target":34962,
		"byteStride":24
	},
	{
		"buffer":1,
		"byteOffset":0,
		"byteLength":1456
	},
	{
		"buffer":1,
		"byteOffset":1456,
		"byteLength":1820
	},
	{
		"buffer":2,
		"byteOffset":0,
		"byteLength":3168,
		"target":34963
	},
	{
		"buffer":2,
		"byteOffset":3168,
		"byteLength":6384,
		"target":34962,
		"byteStride":24
	},
	{
		"buffer":3,
		"byteOffset":0,
		"byteLength":1456
	},
	{
		"buffer":3,
		"byteOffset":1456,
		"byteLength":1820
	},
	{
		"buffer":4,
		"byteOffset":0,
		"byteLength":417792,
		"target":34963
	},
	{
		"buffer":4,
		"byteOffset":417792,
		"byteLength":1154560,
		"target":34962,
		"byteStride":32
	},
	{
		"buffer":5,
		"byteOffset":0,
		"byteLength":1224,
		"target":34963
	},
	{
		"buffer":5,
		"byteOffset":1224,
		"byteLength":5312,
		"target":34962,
		"byteStride":32
	},
	{
		"buffer":6,
		"byteOffset":0,
		"byteLength":1224,
		"target":34963
	},
	{
		"buffer":6,
		"byteOffset":1224,
		"byteLength":5312,
		"target":34962,
		"byteStride":32
	},
	{
		"buffer":7,
		"byteOffset":0,
		"byteLength":1224,
		"target":34963
	},
	{
		"buffer":7,
		"byteOffset":1224,
		"byteLength":5312,
		"target":34962,
		"byteStride":32
	},
	{
		"buffer":8,
		"byteOffset":0,
		"byteLength":1224,
		"target":34963
	},
	{
		"buffer":8,
		"byteOffset":1224,
		"byteLength":5312,
		"target":34962,
		"byteStride":32
	}],
	"buffers":[{
		"uri":"data:application/octet-stream;base64,",
		"byteLength":9552
	},
	{
		"uri":"data:application/octet-stream;base64,",
		"byteLength":3276
	},
	{
		"uri":"data:application/octet-stream;base64,",
		"byteLength":9552
	},
	{
		"uri":"data:application/octet-stream;base64,",
		"byteLength":3276
	},
	{
		"uri":"data:application/octet-stream;base64,",
		"byteLength":1572352
	},
	{
		"uri":"data:application/octet-stream;base64,",
		"byteLength":6536
	},
	{
		"uri":"data:application/octet-stream;base64,",
		"byteLength":6536
	},
	{
		"uri":"data:application/octet-stream;base64,",
		"byteLength":6536
	},
	{
		"uri":"data:application/octet-stream;base64,",
		"byteLength":6536
	}],
	"materials":[{
		"pbrMetallicRoughness":{
			"baseColorFactor":[0.7087378640776699,
			0.5814068751114848,
			0.5022551792676402,
			1.0],
			"metallicFactor":0.6999999999999997,
			"roughnessFactor":0.09999999999999999
		},
		"emissiveFactor":[0.0,
		0.0,
		0.0],
		"alphaMode":"OPAQUE",
		"doubleSided":true,
		"name":"Copper"
	},
	{
		"pbrMetallicRoughness":{
			"baseColorFactor":[0.8,
			0.8,
			0.8,
			1.0],
			"metallicFactor":1.0,
			"roughnessFactor":0.0
		},
		"emissiveFactor":[0.0,
		0.0,
		0.0],
		"alphaMode":"OPAQUE",
		"doubleSided":true,
		"name":"Mat"
	},
	{
		"pbrMetallicRoughness":{
			"baseColorFactor":[0.941747572815534,
			0.7342417756032923,
			0.40042810182707758,
			1.0],
			"metallicFactor":0.9,
			"roughnessFactor":0.1
		},
		"emissiveFactor":[0.0,
		0.0,
		0.0],
		"alphaMode":"OPAQUE",
		"doubleSided":true,
		"name":"Gold - Antique"
	},
	{
		"pbrMetallicRoughness":{
			"baseColorFactor":[0.941747572815534,
			0.7342417756032923,
			0.40042810182707758,
			1.0],
			"metallicFactor":0.9,
			"roughnessFactor":0.1
		},
		"emissiveFactor":[0.0,
		0.0,
		0.0],
		"alphaMode":"OPAQUE",
		"doubleSided":true,
		"name":"Gold - Antique"
	},
	{
		"pbrMetallicRoughness":{
			"baseColorFactor":[0.941747572815534,
			0.7342417756032923,
			0.40042810182707758,
			1.0],
			"metallicFactor":0.9,
			"roughnessFactor":0.1
		},
		"emissiveFactor":[0.0,
		0.0,
		0.0],
		"alphaMode":"OPAQUE",
		"doubleSided":true,
		"name":"Gold - Antique"
	},
	{
		"pbrMetallicRoughness":{
			"baseColorFactor":[0.941747572815534,
			0.7342417756032923,
			0.40042810182707758,
			1.0],
			"metallicFactor":0.9,
			"roughnessFactor":0.1
		},
		"emissiveFactor":[0.0,
		0.0,
		0.0],
		"alphaMode":"OPAQUE",
		"doubleSided":true,
		"name":"Gold - Antique"
	}],
	"animations":[{
		"samplers":[{
			"input":3,
			"interpolation":"LINEAR",
			"output":4
		},
		{
			"input":5,
			"interpolation":"LINEAR",
			"output":6
		},
		{
			"input":10,
			"interpolation":"LINEAR",
			"output":11
		},
		{
			"input":12,
			"interpolation":"LINEAR",
			"output":13
		}],
		"channels":[{
			"sampler":0,
			"target":{
				"node":0,
				"path":"translation"
			}
		},
		{
			"sampler":1,
			"target":{
				"node":0,
				"path":"rotation"
			}
		},
		{
			"sampler":2,
			"target":{
				"node":1,
				"path":"translation"
			}
		},
		{
			"sampler":3,
			"target":{
				"node":1,
				"path":"rotation"
			}
		}]
	}]
}