{
	"nodes":[{
		"name":"Path",
		"translation":[2.977064371109009,
		0.0,
		3.8152379989624025],
		"rotation":[0.0,
		0.0,
		0.0,
		-1.0],
		"scale":[1.0,
		1.0,
		1.0],
		"children":[1,
		2]
	},
	{
		"mesh":0,
		"name":"Path-bg",
		"translation":[0.0,
		0.0,
		0.0],
		"rotation":[0.0,
		0.0,
		0.0,
		-1.0],
		"scale":[1.0,
		1.0,
		1.0]
	},
	{
		"mesh":1,
		"name":"Path-Mat",
		"translation":[0.0,
		0.0,
		0.0],
		"rotation":[0.0,
		0.0,
		0.0,
		-1.0],
		"scale":[1.0,
		1.0,
		1.0]
	}],
	"asset":{
		"version":"2.0",
		"generator":"Created using the official Cinema 4D glTF Exporter 1.000x284978"
	},
	"bufferViews":[{
		"buffer":0,
		"byteOffset":0,
		"byteLength":12174,
		"target":34963
	},
	{
		"buffer":0,
		"byteOffset":12176,
		"byteLength":68768,
		"target":34962,
		"byteStride":32
	},
	{
		"buffer":1,
		"byteOffset":0,
		"byteLength":1674,
		"target":34963
	},
	{
		"buffer":1,
		"byteOffset":1676,
		"byteLength":8992,
		"target":34962,
		"byteStride":32
	}],
	"scenes":[{
		"nodes":[0]
	}],
	"materials":[{
		"pbrMetallicRoughness":{
			"baseColorTexture":{
				"index":0
			},
			"baseColorFactor":[0.8,
			0.8,
			0.8,
			1.0],
			"metallicFactor":0.0,
			"roughnessFactor":0.5
		},
		"emissiveFactor":[0.0,
		0.0,
		0.0],
		"alphaMode":"OPAQUE",
		"doubleSided":true,
		"name":"bg"
	},
	{
		"pbrMetallicRoughness":{
			"baseColorTexture":{
				"index":1
			},
			"baseColorFactor":[0.8,
			0.8,
			0.8,
			1.0],
			"metallicFactor":0.0,
			"roughnessFactor":0.5
		},
		"emissiveFactor":[0.0,
		0.0,
		0.0],
		"alphaMode":"OPAQUE",
		"doubleSided":true,
		"name":"Mat"
	}],
	"meshes":[{
		"name":"Path-bg",
		"primitives":[{
			"attributes":{
				"POSITION":1,
				"NORMAL":2,
				"TEXCOORD_0":3
			},
			"indices":0,
			"material":0
		}]
	},
	{
		"name":"Path-Mat",
		"primitives":[{
			"attributes":{
				"POSITION":5,
				"NORMAL":6,
				"TEXCOORD_0":7
			},
			"indices":4,
			"material":1
		}]
	}],
	"accessors":[{
		"bufferView":0,
		"type":"SCALAR",
		"componentType":5123,
		"count":6087,
		"byteOffset":0,
		"min":[0],
		"max":[2148]
	},
	{
		"bufferView":1,
		"type":"VEC3",
		"componentType":5126,
		"count":2149,
		"byteOffset":0,
		"min":[-522.0077514648438,
		-534.3692626953125,
		-87.5],
		"max":[458.7068786621094,
		414.4137268066406,
		12.5]
	},
	{
		"bufferView":1,
		"type":"VEC3",
		"componentType":5126,
		"count":2149,
		"byteOffset":12,
		"min":[-0.9999688267707825,
		-0.9998437762260437,
		-1.0],
		"max":[0.9997813105583191,
		0.9998750686645508,
		0.7557187676429749]
	},
	{
		"bufferView":1,
		"type":"VEC2",
		"componentType":5126,
		"count":2149,
		"byteOffset":24,
		"min":[0.0,
		0.0],
		"max":[1.0,
		1.0]
	},
	{
		"bufferView":2,
		"type":"SCALAR",
		"componentType":5123,
		"count":837,
		"byteOffset":0,
		"min":[0],
		"max":[280]
	},
	{
		"bufferView":3,
		"type":"VEC3",
		"componentType":5126,
		"count":281,
		"byteOffset":0,
		"min":[-509.4948425292969,
		-521.861572265625,
		12.5],
		"max":[446.194580078125,
		401.9068908691406,
		12.5]
	},
	{
		"bufferView":3,
		"type":"VEC3",
		"componentType":5126,
		"count":281,
		"byteOffset":12,
		"min":[0.0,
		0.0,
		1.0],
		"max":[0.0,
		0.0,
		1.0]
	},
	{
		"bufferView":3,
		"type":"VEC2",
		"componentType":5126,
		"count":281,
		"byteOffset":24,
		"min":[0.11240863054990769,
		0.04191449284553528],
		"max":[0.8797178268432617,
		0.9653792381286621]
	}],
	"buffers":[{
		"uri":"data:application/octet-stream;base64,",
		"byteLength":80944
	},
	{
		"uri":"data:application/octet-stream;base64,",
		"byteLength":10668
	}],
	"images":[{
		"uri":"data:image/jpeg;base64,"
	},
	{
		"uri":"data:image/jpeg;base64,"
	}],
	"samplers":[{
		"magFilter":9729,
		"minFilter":9729,
		"wrapS":10497,
		"wrapT":10497
	},
	{
		"magFilter":9729,
		"minFilter":9729,
		"wrapS":10497,
		"wrapT":10497
	}],
	"textures":[{
		"sampler":0,
		"source":0
	},
	{
		"sampler":1,
		"source":1
	}]
}