{
	"nodes":[{
		"name":"Path",
		"translation":[-107.46492767333985,
		4.763686180114746,
		-1.8903768062591553],
		"rotation":[0.0,
		0.0,
		0.0,
		-1.0],
		"scale":[1.0,
		1.0,
		1.0],
		"children":[1,
		2]
	},
	{
		"mesh":0,
		"name":"Path-bg",
		"translation":[0.0,
		0.0,
		0.0],
		"rotation":[0.0,
		0.0,
		0.0,
		-1.0],
		"scale":[1.0,
		1.0,
		1.0]
	},
	{
		"mesh":1,
		"name":"Path-Mat",
		"translation":[0.0,
		0.0,
		0.0],
		"rotation":[0.0,
		0.0,
		0.0,
		-1.0],
		"scale":[1.0,
		1.0,
		1.0]
	}],
	"asset":{
		"version":"2.0",
		"generator":"Created using the official Cinema 4D glTF Exporter 1.000x284978"
	},
	"bufferViews":[{
		"buffer":0,
		"byteOffset":0,
		"byteLength":8136,
		"target":34963
	},
	{
		"buffer":0,
		"byteOffset":8136,
		"byteLength":44672,
		"target":34962,
		"byteStride":32
	},
	{
		"buffer":1,
		"byteOffset":0,
		"byteLength":1152,
		"target":34963
	},
	{
		"buffer":1,
		"byteOffset":1152,
		"byteLength":6208,
		"target":34962,
		"byteStride":32
	}],
	"scenes":[{
		"nodes":[0]
	}],
	"materials":[{
		"pbrMetallicRoughness":{
			"baseColorTexture":{
				"index":0
			},
			"baseColorFactor":[0.8,
			0.8,
			0.8,
			1.0],
			"metallicFactor":0.0,
			"roughnessFactor":0.5
		},
		"emissiveFactor":[0.0,
		0.0,
		0.0],
		"alphaMode":"OPAQUE",
		"doubleSided":true,
		"name":"bg"
	},
	{
		"pbrMetallicRoughness":{
			"baseColorTexture":{
				"index":1
			},
			"baseColorFactor":[0.8,
			0.8,
			0.8,
			1.0],
			"metallicFactor":0.0,
			"roughnessFactor":0.5
		},
		"emissiveFactor":[0.0,
		0.0,
		0.0],
		"alphaMode":"OPAQUE",
		"doubleSided":true,
		"name":"Mat"
	}],
	"meshes":[{
		"name":"Path-bg",
		"primitives":[{
			"attributes":{
				"POSITION":1,
				"NORMAL":2,
				"TEXCOORD_0":3
			},
			"indices":0,
			"material":0
		}]
	},
	{
		"name":"Path-Mat",
		"primitives":[{
			"attributes":{
				"POSITION":5,
				"NORMAL":6,
				"TEXCOORD_0":7
			},
			"indices":4,
			"material":1
		}]
	}],
	"accessors":[{
		"bufferView":0,
		"type":"SCALAR",
		"componentType":5123,
		"count":4068,
		"byteOffset":0,
		"min":[0],
		"max":[1395]
	},
	{
		"bufferView":1,
		"type":"VEC3",
		"componentType":5126,
		"count":1396,
		"byteOffset":0,
		"min":[-351.78985595703127,
		-2.74946928024292,
		-52.21693420410156],
		"max":[451.96929931640627,
		698.228271484375,
		47.78306579589844]
	},
	{
		"bufferView":1,
		"type":"VEC3",
		"componentType":5126,
		"count":1396,
		"byteOffset":12,
		"min":[-0.9996563196182251,
		-0.9998750686645508,
		-1.0],
		"max":[0.9995312690734863,
		0.9996563196182251,
		0.7507500648498535]
	},
	{
		"bufferView":1,
		"type":"VEC2",
		"componentType":5126,
		"count":1396,
		"byteOffset":24,
		"min":[0.0,
		0.0],
		"max":[1.0,
		1.0]
	},
	{
		"bufferView":2,
		"type":"SCALAR",
		"componentType":5123,
		"count":576,
		"byteOffset":0,
		"min":[0],
		"max":[193]
	},
	{
		"bufferView":3,
		"type":"VEC3",
		"componentType":5126,
		"count":194,
		"byteOffset":0,
		"min":[-339.2771301269531,
		9.76703929901123,
		47.78306579589844],
		"max":[439.45001220703127,
		685.704833984375,
		47.78306579589844]
	},
	{
		"bufferView":3,
		"type":"VEC3",
		"componentType":5126,
		"count":194,
		"byteOffset":12,
		"min":[0.0,
		0.0,
		1.0],
		"max":[0.0,
		0.0,
		1.0]
	},
	{
		"bufferView":3,
		"type":"VEC2",
		"componentType":5126,
		"count":194,
		"byteOffset":24,
		"min":[0.191656231880188,
		0.20515042543411256],
		"max":[0.841895341873169,
		0.880182683467865]
	}],
	"buffers":[{
		"uri":"data:application/octet-stream;base64,",
		"byteLength":52808
	},
	{
		"uri":"data:application/octet-stream;base64,",
		"byteLength":7360
	}],
	"images":[{
		"uri":"data:image/jpeg;base64,"
	},
	{
		"uri":"data:image/jpeg;base64,"
	}],
	"samplers":[{
		"magFilter":9729,
		"minFilter":9729,
		"wrapS":10497,
		"wrapT":10497
	},
	{
		"magFilter":9729,
		"minFilter":9729,
		"wrapS":10497,
		"wrapT":10497
	}],
	"textures":[{
		"sampler":0,
		"source":0
	},
	{
		"sampler":1,
		"source":1
	}]
}