{
	"nodes":[{
		"name":"Path",
		"translation":[0.0,
		0.138390451669693,
		-0.8725205063819885],
		"rotation":[0.0,
		0.0,
		0.0,
		-1.0],
		"scale":[1.0,
		1.0,
		1.0],
		"children":[1,
		2]
	},
	{
		"mesh":0,
		"name":"Path-bg",
		"translation":[0.0,
		0.0,
		0.0],
		"rotation":[0.0,
		0.0,
		0.0,
		-1.0],
		"scale":[1.0,
		1.0,
		1.0]
	},
	{
		"mesh":1,
		"name":"Path-Mat",
		"translation":[0.0,
		0.0,
		0.0],
		"rotation":[0.0,
		0.0,
		0.0,
		-1.0],
		"scale":[1.0,
		1.0,
		1.0]
	}],
	"asset":{
		"version":"2.0",
		"generator":"Created using the official Cinema 4D glTF Exporter 1.000x284978"
	},
	"bufferViews":[{
		"buffer":0,
		"byteOffset":0,
		"byteLength":8934,
		"target":34963
	},
	{
		"buffer":0,
		"byteOffset":8936,
		"byteLength":49888,
		"target":34962,
		"byteStride":32
	},
	{
		"buffer":1,
		"byteOffset":0,
		"byteLength":1266,
		"target":34963
	},
	{
		"buffer":1,
		"byteOffset":1268,
		"byteLength":6816,
		"target":34962,
		"byteStride":32
	}],
	"scenes":[{
		"nodes":[0]
	}],
	"materials":[{
		"pbrMetallicRoughness":{
			"baseColorTexture":{
				"index":0
			},
			"baseColorFactor":[0.8,
			0.8,
			0.8,
			1.0],
			"metallicFactor":0.0,
			"roughnessFactor":0.5
		},
		"emissiveFactor":[0.0,
		0.0,
		0.0],
		"alphaMode":"OPAQUE",
		"doubleSided":true,
		"name":"bg"
	},
	{
		"pbrMetallicRoughness":{
			"baseColorTexture":{
				"index":1
			},
			"baseColorFactor":[0.8,
			0.8,
			0.8,
			1.0],
			"metallicFactor":0.0,
			"roughnessFactor":0.5
		},
		"emissiveFactor":[0.0,
		0.0,
		0.0],
		"alphaMode":"OPAQUE",
		"doubleSided":true,
		"name":"Mat"
	}],
	"meshes":[{
		"name":"Path-bg",
		"primitives":[{
			"attributes":{
				"POSITION":1,
				"NORMAL":2,
				"TEXCOORD_0":3
			},
			"indices":0,
			"material":0
		}]
	},
	{
		"name":"Path-Mat",
		"primitives":[{
			"attributes":{
				"POSITION":5,
				"NORMAL":6,
				"TEXCOORD_0":7
			},
			"indices":4,
			"material":1
		}]
	}],
	"accessors":[{
		"bufferView":0,
		"type":"SCALAR",
		"componentType":5123,
		"count":4467,
		"byteOffset":0,
		"min":[0],
		"max":[1558]
	},
	{
		"bufferView":1,
		"type":"VEC3",
		"componentType":5126,
		"count":1559,
		"byteOffset":0,
		"min":[-344.6366271972656,
		-2.256911039352417,
		-54.25605773925781],
		"max":[370.0428771972656,
		713.3650512695313,
		45.74394226074219]
	},
	{
		"bufferView":1,
		"type":"VEC3",
		"componentType":5126,
		"count":1559,
		"byteOffset":12,
		"min":[-0.9998437762260437,
		-0.9998750686645508,
		-1.0],
		"max":[0.9996563196182251,
		0.9999688267707825,
		0.7555313110351563]
	},
	{
		"bufferView":1,
		"type":"VEC2",
		"componentType":5126,
		"count":1559,
		"byteOffset":24,
		"min":[0.0,
		0.0],
		"max":[1.0,
		1.0]
	},
	{
		"bufferView":2,
		"type":"SCALAR",
		"componentType":5123,
		"count":633,
		"byteOffset":0,
		"min":[0],
		"max":[212]
	},
	{
		"bufferView":3,
		"type":"VEC3",
		"componentType":5126,
		"count":213,
		"byteOffset":0,
		"min":[-332.1214294433594,
		14.752995491027832,
		45.74394226074219],
		"max":[357.53070068359377,
		700.85498046875,
		45.74394226074219]
	},
	{
		"bufferView":3,
		"type":"VEC3",
		"componentType":5126,
		"count":213,
		"byteOffset":12,
		"min":[0.0,
		0.0,
		1.0],
		"max":[0.0,
		0.0,
		1.0]
	},
	{
		"bufferView":3,
		"type":"VEC2",
		"componentType":5126,
		"count":213,
		"byteOffset":24,
		"min":[0.21242111921310426,
		0.18132489919662476],
		"max":[0.769478976726532,
		0.8565004467964172]
	}],
	"buffers":[{
		"uri":"data:application/octet-stream;base64,",
		"byteLength":58824
	},
	{
		"uri":"data:application/octet-stream;base64,",
		"byteLength":8084
	}],
	"images":[{
		"uri":"data:image/jpeg;base64,"
	},
	{
		"uri":"data:image/jpeg;base64,"
	}],
	"samplers":[{
		"magFilter":9729,
		"minFilter":9729,
		"wrapS":10497,
		"wrapT":10497
	},
	{
		"magFilter":9729,
		"minFilter":9729,
		"wrapS":10497,
		"wrapT":10497
	}],
	"textures":[{
		"sampler":0,
		"source":0
	},
	{
		"sampler":1,
		"source":1
	}]
}