{
	"nodes":[{
		"name":"Path",
		"translation":[24.243181228637697,
		4.922087669372559,
		-11.800728797912598],
		"rotation":[0.0,
		0.0,
		0.0,
		-1.0],
		"scale":[1.0,
		1.0,
		1.0],
		"children":[1,
		2]
	},
	{
		"mesh":0,
		"name":"Path-bg",
		"translation":[0.0,
		0.0,
		0.0],
		"rotation":[0.0,
		0.0,
		0.0,
		-1.0],
		"scale":[1.0,
		1.0,
		1.0]
	},
	{
		"mesh":1,
		"name":"Path-Mat",
		"translation":[0.0,
		0.0,
		0.0],
		"rotation":[0.0,
		0.0,
		0.0,
		-1.0],
		"scale":[1.0,
		1.0,
		1.0]
	}],
	"asset":{
		"version":"2.0",
		"generator":"Created using the official Cinema 4D glTF Exporter 1.000x284978"
	},
	"bufferViews":[{
		"buffer":0,
		"byteOffset":0,
		"byteLength":7674,
		"target":34963
	},
	{
		"buffer":0,
		"byteOffset":7676,
		"byteLength":47776,
		"target":34962,
		"byteStride":32
	},
	{
		"buffer":1,
		"byteOffset":0,
		"byteLength":1086,
		"target":34963
	},
	{
		"buffer":1,
		"byteOffset":1088,
		"byteLength":5856,
		"target":34962,
		"byteStride":32
	}],
	"scenes":[{
		"nodes":[0]
	}],
	"materials":[{
		"pbrMetallicRoughness":{
			"baseColorTexture":{
				"index":0
			},
			"baseColorFactor":[0.8,
			0.8,
			0.8,
			1.0],
			"metallicFactor":0.0,
			"roughnessFactor":0.5
		},
		"emissiveFactor":[0.0,
		0.0,
		0.0],
		"alphaMode":"OPAQUE",
		"doubleSided":true,
		"name":"bg"
	},
	{
		"pbrMetallicRoughness":{
			"baseColorTexture":{
				"index":1
			},
			"baseColorFactor":[0.8,
			0.8,
			0.8,
			1.0],
			"metallicFactor":0.0,
			"roughnessFactor":0.5
		},
		"emissiveFactor":[0.0,
		0.0,
		0.0],
		"alphaMode":"OPAQUE",
		"doubleSided":true,
		"name":"Mat"
	}],
	"meshes":[{
		"name":"Path-bg",
		"primitives":[{
			"attributes":{
				"POSITION":1,
				"NORMAL":2,
				"TEXCOORD_0":3
			},
			"indices":0,
			"material":0
		}]
	},
	{
		"name":"Path-Mat",
		"primitives":[{
			"attributes":{
				"POSITION":5,
				"NORMAL":6,
				"TEXCOORD_0":7
			},
			"indices":4,
			"material":1
		}]
	}],
	"accessors":[{
		"bufferView":0,
		"type":"SCALAR",
		"componentType":5123,
		"count":3837,
		"byteOffset":0,
		"min":[0],
		"max":[1492]
	},
	{
		"bufferView":1,
		"type":"VEC3",
		"componentType":5126,
		"count":1493,
		"byteOffset":0,
		"min":[-376.56512451171877,
		1.616111159324646,
		-38.944454193115237],
		"max":[348.5115966796875,
		800.2836303710938,
		56.055545806884769]
	},
	{
		"bufferView":1,
		"type":"VEC3",
		"componentType":5126,
		"count":1493,
		"byteOffset":12,
		"min":[-0.9999688267707825,
		-1.0,
		-1.0],
		"max":[0.9999688267707825,
		0.9996563196182251,
		0.7541875243186951]
	},
	{
		"bufferView":1,
		"type":"VEC2",
		"componentType":5126,
		"count":1493,
		"byteOffset":24,
		"min":[0.0,
		0.0],
		"max":[1.0,
		1.0]
	},
	{
		"bufferView":2,
		"type":"SCALAR",
		"componentType":5123,
		"count":543,
		"byteOffset":0,
		"min":[0],
		"max":[182]
	},
	{
		"bufferView":3,
		"type":"VEC3",
		"componentType":5126,
		"count":183,
		"byteOffset":0,
		"min":[-364.4950866699219,
		11.662095069885254,
		56.055545806884769],
		"max":[338.5013732910156,
		787.2825317382813,
		56.055545806884769]
	},
	{
		"bufferView":3,
		"type":"VEC3",
		"componentType":5126,
		"count":183,
		"byteOffset":12,
		"min":[0.0,
		0.0,
		1.0],
		"max":[0.0,
		0.0,
		1.0]
	},
	{
		"bufferView":3,
		"type":"VEC2",
		"componentType":5126,
		"count":183,
		"byteOffset":24,
		"min":[0.22618643939495088,
		0.11339417099952698],
		"max":[0.786830723285675,
		0.8662182092666626]
	}],
	"buffers":[{
		"uri":"data:application/octet-stream;base64,",
		"byteLength":55452
	},
	{
		"uri":"data:application/octet-stream;base64,",
		"byteLength":6944
	}],
	"images":[{
		"uri":"data:image/jpeg;base64,"
	},
	{
		"uri":"data:image/jpeg;base64,"
	}],
	"samplers":[{
		"magFilter":9729,
		"minFilter":9729,
		"wrapS":10497,
		"wrapT":10497
	},
	{
		"magFilter":9729,
		"minFilter":9729,
		"wrapS":10497,
		"wrapT":10497
	}],
	"textures":[{
		"sampler":0,
		"source":0
	},
	{
		"sampler":1,
		"source":1
	}]
}