{
	"nodes":[{
		"name":"Extrude",
		"translation":[-6.429521083831787,
		11.14468002319336,
		-3.9274120330810549],
		"rotation":[0.0,
		0.0,
		0.0,
		-1.0],
		"scale":[1.0,
		1.0,
		1.0],
		"children":[1]
	},
	{
		"mesh":0,
		"name":"Extrude"
	}],
	"asset":{
		"version":"2.0",
		"generator":"Created using the official Cinema 4D glTF Exporter 1.000x284978"
	},
	"bufferViews":[{
		"buffer":0,
		"byteOffset":0,
		"byteLength":1728,
		"target":34963
	},
	{
		"buffer":0,
		"byteOffset":1728,
		"byteLength":9792,
		"target":34962,
		"byteStride":32
	}],
	"scenes":[{
		"nodes":[0]
	}],
	"materials":[{
		"pbrMetallicRoughness":{
			"baseColorFactor":[
			0.18039, 0.4, 0,
			1.0],
			"metallicFactor":0.0,
			"roughnessFactor":0.5
		},
		"emissiveFactor":[0.0,
		0.0,
		0.0],
		"alphaMode":"OPAQUE",
		"doubleSided":true,
		"name":"Mat"
	}],
	"meshes":[{
		"name":"Extrude",
		"primitives":[{
			"attributes":{
				"POSITION":1,
				"NORMAL":2,
				"TEXCOORD_0":3
			},
			"indices":0,
			"material":0
		}]
	}],
	"accessors":[{
		"bufferView":0,
		"type":"SCALAR",
		"componentType":5123,
		"count":864,
		"byteOffset":0,
		"min":[0],
		"max":[305]
	},
	{
		"bufferView":1,
		"type":"VEC3",
		"componentType":5126,
		"count":306,
		"byteOffset":0,
		"min":[-47.286643981933597,
		-9.398229598999024,
		-1.9560203552246094],
		"max":[59.4398193359375,
		57.926151275634769,
		8.833328247070313]
	},
	{
		"bufferView":1,
		"type":"VEC3",
		"componentType":5126,
		"count":306,
		"byteOffset":12,
		"min":[-0.9999184012413025,
		-0.9999383687973023,
		-1.0],
		"max":[0.9999822378158569,
		0.999999463558197,
		1.0]
	},
	{
		"bufferView":1,
		"type":"VEC2",
		"componentType":5126,
		"count":306,
		"byteOffset":24,
		"min":[0.0,
		0.0],
		"max":[1.0,
		1.0]
	}],
	"buffers":[{
		"uri":"data:application/octet-stream;base64,",
		"byteLength":11520
	}]
}