{"accessors" : [{"bufferView" : 0, "byteOffset" : 0, "componentType" : 5123, "count" : 9168, "type" : "SCALAR", "max" : [8704], "min" : [0]}, {"bufferView" : 1, "byteOffset" : 0, "componentType" : 5126, "count" : 8705, "type" : "VEC3", "max" : [2.831580638885498, 8.679991722106934, 3.2572083473205566], "min" : [-2.9645957946777344, 0.01270945556461811, -1.4455628395080566], "name" : "POSITION"}, {"bufferView" : 1, "byteOffset" : 12, "componentType" : 5126, "count" : 8705, "type" : "VEC3", "max" : [0.9999744892120361, 0.9999995231628418, 0.9999781847000122], "min" : [-0.9994427561759949, -0.9999476671218872, -0.9998670220375061], "name" : "NORMAL"}, {"bufferView" : 1, "byteOffset" : 24, "componentType" : 5126, "count" : 8705, "type" : "VEC2", "max" : [0.9941409826278687, 0.5], "min" : [0.02539060078561306, 0.5], "name" : "TEXCOORD_0"}], "asset" : {"generator" : "Aspose.3D 22.10", "version" : "2.0"}, "buffers" : [{"uri" : "data:application/octet-stream;base64,", "byteLength" : 311720}], "bufferViews" : [{"buffer" : 0, "byteOffset" : 0, "byteLength" : 18336, "target" : 34963}, {"buffer" : 0, "byteOffset" : 18340, "byteLength" : 293376, "byteStride" : 32, "target" : 34962}], "images" : [{"uri" : "data:image/jpeg;base64,"}], "materials" : [{"name" : "palettemat", "pbrMetallicRoughness" : {"baseColorFactor" : [1, 1, 1, 1], "baseColorTexture" : {"index" : 0, "texCoord" : 0}, "metallicFactor" : 1, "roughnessFactor" : 1}, "emissiveFactor" : [0, 0, 0], "alphaMode" : "OPAQUE", "doubleSided" : true}], "meshes" : [{"primitives" : [{"attributes" : {"POSITION" : 1, "NORMAL" : 2, "TEXCOORD_0" : 3}, "indices" : 0, "material" : 0, "mode" : 4}]}], "nodes" : [{"mesh" : 0, "name" : "unamed"}, {"children" : [0], "name" : "unamed"}], "samplers" : [{"magFilter" : 9729, "minFilter" : 9729, "wrapS" : 10497, "wrapT" : 10497}], "scene" : 0, "scenes" : [{"nodes" : [1]}], "textures" : [{"sampler" : 0, "source" : 0, "name" : ""}]}