{
	"asset":{
		"version":"2.0",
		"generator":"Created using the official Cinema 4D glTF Exporter 1.000x284978"
	},
	"scenes":[{
		"nodes":[0,
		11]
	}],
	"nodes":[{
		"translation":[-4.397337436676025,
		40.09331512451172,
		0.2924172878265381],
		"name":"Ноль",
		"rotation":[0.0,
		0.0,
		0.0,
		-1.0],
		"scale":[1.0,
		1.0,
		1.0],
		"children":[1,
		2,
		9,
		10]
	},
	{
		"translation":[4.397337436676025,
		126.60739135742188,
		-0.2924172878265381],
		"name":"неваляшка",
		"rotation":[0.0,
		0.0,
		0.0,
		-1.0],
		"scale":[1.0,
		1.0,
		1.0],
		"mesh":0
	},
	{
		"translation":[-13.019469261169434,
		-63.276763916015628,
		0.9399725198745728],
		"name":"чаша",
		"rotation":[0.0,
		0.0,
		0.0,
		-1.0],
		"scale":[1.0,
		1.0,
		1.0],
		"children":[3,
		4,
		5,
		6,
		7,
		8]
	},
	{
		"name":"чаша-Материал.10",
		"mesh":1
	},
	{
		"name":"чаша-Материал.4",
		"mesh":2
	},
	{
		"name":"чаша-Материал.1",
		"mesh":3
	},
	{
		"name":"чаша-Материал.5",
		"mesh":4
	},
	{
		"name":"чаша-Материал.2",
		"mesh":5
	},
	{
		"name":"чаша-Материал.5",
		"mesh":6
	},
	{
		"translation":[4.2675886154174809,
		-15.012422561645508,
		-0.2924172878265381],
		"name":"пилюли",
		"rotation":[0.0,
		-0.9999741911888123,
		0.0,
		0.0071841939352452759],
		"scale":[1.0,
		1.0,
		1.0],
		"mesh":7
	},
	{
		"translation":[4.3545427322387699,
		14.759896278381348,
		-0.35513797402381899],
		"name":"шар",
		"rotation":[0.0,
		-0.6966700553894043,
		0.0,
		-0.7173917293548584],
		"scale":[1.0,
		1.0,
		1.0],
		"mesh":8
	},
	{
		"translation":[0.0,
		32.34082794189453,
		0.0],
		"name":"Куб",
		"rotation":[0.0,
		0.0,
		0.0,
		-1.0],
		"scale":[1.0,
		1.0,
		1.0],
		"mesh":9
	}],
	"meshes":[{
		"name":"неваляшка",
		"primitives":[{
			"material":0,
			"attributes":{
				"POSITION":7,
				"NORMAL":8,
				"TEXCOORD_0":9
			},
			"indices":6
		}]
	},
	{
		"name":"чаша-Материал.10",
		"primitives":[{
			"material":1,
			"attributes":{
				"POSITION":17,
				"NORMAL":18,
				"TEXCOORD_0":19
			},
			"indices":16
		}]
	},
	{
		"name":"чаша-Материал.4",
		"primitives":[{
			"material":0,
			"attributes":{
				"POSITION":21,
				"NORMAL":22,
				"TEXCOORD_0":23
			},
			"indices":20
		}]
	},
	{
		"name":"чаша-Материал.1",
		"primitives":[{
			"material":2,
			"attributes":{
				"POSITION":25,
				"NORMAL":26,
				"TEXCOORD_0":27
			},
			"indices":24
		}]
	},
	{
		"name":"чаша-Материал.5",
		"primitives":[{
			"material":3,
			"attributes":{
				"POSITION":29,
				"NORMAL":30,
				"TEXCOORD_0":31
			},
			"indices":28
		}]
	},
	{
		"name":"чаша-Материал.2",
		"primitives":[{
			"material":4,
			"attributes":{
				"POSITION":33,
				"NORMAL":34,
				"TEXCOORD_0":35
			},
			"indices":32
		}]
	},
	{
		"name":"чаша-Материал.5",
		"primitives":[{
			"material":3,
			"attributes":{
				"POSITION":37,
				"NORMAL":38,
				"TEXCOORD_0":39
			},
			"indices":36
		}]
	},
	{
		"name":"пилюли",
		"primitives":[{
			"material":1,
			"attributes":{
				"POSITION":41,
				"NORMAL":42,
				"TEXCOORD_0":43
			},
			"indices":40
		}]
	},
	{
		"name":"шар",
		"primitives":[{
			"material":4,
			"attributes":{
				"POSITION":51,
				"NORMAL":52,
				"TEXCOORD_0":53
			},
			"indices":50
		}]
	},
	{
		"name":"Куб",
		"primitives":[{
			"material":5,
			"attributes":{
				"POSITION":61,
				"NORMAL":62,
				"TEXCOORD_0":63
			},
			"indices":60
		}]
	}],
	"accessors":[{
		"bufferView":0,
		"min":[0.0],
		"type":"SCALAR",
		"componentType":5126,
		"count":7,
		"byteOffset":0,
		"max":[3.0]
	},
	{
		"bufferView":0,
		"min":[-4.397337436676025,
		0.0,
		0.0],
		"type":"VEC3",
		"componentType":5126,
		"count":21,
		"byteOffset":28,
		"max":[0.5496934652328491,
		40.09331512451172,
		0.2924172878265381]
	},
	{
		"bufferView":1,
		"min":[0.0],
		"type":"SCALAR",
		"componentType":5126,
		"count":7,
		"byteOffset":0,
		"max":[3.0]
	},
	{
		"bufferView":1,
		"min":[-0.16567347943782807,
		-0.13823914527893067,
		-0.17930294573307038,
		-1.0],
		"type":"VEC4",
		"componentType":5126,
		"count":7,
		"byteOffset":28,
		"max":[0.1818830817937851,
		0.023579245433211328,
		0.13765186071395875,
		-0.973339855670929]
	},
	{
		"bufferView":2,
		"min":[0.0],
		"type":"SCALAR",
		"componentType":5126,
		"count":7,
		"byteOffset":0,
		"max":[3.0]
	},
	{
		"bufferView":2,
		"min":[1.0,
		1.0,
		1.0],
		"type":"VEC3",
		"componentType":5126,
		"count":7,
		"byteOffset":28,
		"max":[1.0,
		1.0,
		1.0]
	},
	{
		"bufferView":3,
		"min":[0],
		"type":"SCALAR",
		"componentType":5123,
		"count":1344,
		"byteOffset":0,
		"max":[301]
	},
	{
		"bufferView":4,
		"min":[-6.210638523101807,
		-10.22914981842041,
		-6.210638523101807],
		"type":"VEC3",
		"componentType":5126,
		"count":302,
		"byteOffset":0,
		"max":[6.210638523101807,
		8.031932830810547,
		6.210638523101807]
	},
	{
		"bufferView":4,
		"min":[-0.9999999403953552,
		-1.0,
		-1.0],
		"type":"VEC3",
		"componentType":5126,
		"count":302,
		"byteOffset":12,
		"max":[1.0,
		1.0,
		1.0]
	},
	{
		"bufferView":4,
		"min":[0.0,
		0.0],
		"type":"VEC2",
		"componentType":5126,
		"count":302,
		"byteOffset":24,
		"max":[1.0,
		1.0]
	},
	{
		"bufferView":5,
		"min":[0.0],
		"type":"SCALAR",
		"componentType":5126,
		"count":5,
		"byteOffset":0,
		"max":[3.0]
	},
	{
		"bufferView":5,
		"min":[0.0019006222719326616,
		126.60739135742188,
		-0.2924172878265381],
		"type":"VEC3",
		"componentType":5126,
		"count":5,
		"byteOffset":20,
		"max":[4.397337436676025,
		126.60739135742188,
		-0.2924172878265381]
	},
	{
		"bufferView":6,
		"min":[0.0],
		"type":"SCALAR",
		"componentType":5126,
		"count":5,
		"byteOffset":0,
		"max":[3.0]
	},
	{
		"bufferView":6,
		"min":[-0.010226981714367867,
		0.0,
		-0.26139378547668459,
		-1.0],
		"type":"VEC4",
		"componentType":5126,
		"count":5,
		"byteOffset":20,
		"max":[0.24609839916229249,
		0.2955795228481293,
		0.3202774226665497,
		-0.8937764763832092]
	},
	{
		"bufferView":7,
		"min":[0.0],
		"type":"SCALAR",
		"componentType":5126,
		"count":5,
		"byteOffset":0,
		"max":[3.0]
	},
	{
		"bufferView":7,
		"min":[1.0,
		1.0,
		1.0],
		"type":"VEC3",
		"componentType":5126,
		"count":5,
		"byteOffset":20,
		"max":[1.0,
		1.0,
		1.0]
	},
	{
		"bufferView":8,
		"min":[0],
		"type":"SCALAR",
		"componentType":5123,
		"count":768,
		"byteOffset":0,
		"max":[199]
	},
	{
		"bufferView":9,
		"min":[1.5251896381378174,
		175.96932983398438,
		-17.124006271362306],
		"type":"VEC3",
		"componentType":5126,
		"count":200,
		"byteOffset":0,
		"max":[33.30842208862305,
		188.61614990234376,
		14.65922737121582]
	},
	{
		"bufferView":9,
		"min":[-0.9807187914848328,
		-1.0,
		-0.9807813167572022],
		"type":"VEC3",
		"componentType":5126,
		"count":200,
		"byteOffset":12,
		"max":[0.9807187914848328,
		1.0,
		0.9807813167572022]
	},
	{
		"bufferView":9,
		"min":[0.0,
		0.2553948163986206],
		"type":"VEC2",
		"componentType":5126,
		"count":200,
		"byteOffset":24,
		"max":[1.0,
		1.0]
	},
	{
		"bufferView":10,
		"min":[0],
		"type":"SCALAR",
		"componentType":5123,
		"count":570,
		"byteOffset":0,
		"max":[133]
	},
	{
		"bufferView":11,
		"min":[1.6935311555862427,
		61.955284118652347,
		-16.9582576751709],
		"type":"VEC3",
		"componentType":5126,
		"count":134,
		"byteOffset":0,
		"max":[33.39606857299805,
		86.23133850097656,
		14.744505882263184]
	},
	{
		"bufferView":11,
		"min":[-0.9999688267707825,
		-0.9999688267707825,
		-0.9999688267707825],
		"type":"VEC3",
		"componentType":5126,
		"count":134,
		"byteOffset":12,
		"max":[0.9999688267707825,
		0.9999688267707825,
		0.9999688267707825]
	},
	{
		"bufferView":11,
		"min":[0.0,
		0.0],
		"type":"VEC2",
		"componentType":5126,
		"count":134,
		"byteOffset":24,
		"max":[1.0,
		0.6811317205429077]
	},
	{
		"bufferView":12,
		"min":[0],
		"type":"SCALAR",
		"componentType":5123,
		"count":3996,
		"byteOffset":0,
		"max":[925]
	},
	{
		"bufferView":13,
		"min":[-7.95157527923584,
		103.64167785644531,
		-26.600770950317384],
		"type":"VEC3",
		"componentType":5126,
		"count":926,
		"byteOffset":0,
		"max":[42.78519058227539,
		115.23583984375,
		24.1359920501709]
	},
	{
		"bufferView":13,
		"min":[-1.0,
		-1.0,
		-1.0],
		"type":"VEC3",
		"componentType":5126,
		"count":926,
		"byteOffset":12,
		"max":[1.0,
		1.0,
		1.0]
	},
	{
		"bufferView":13,
		"min":[0.0,
		0.0],
		"type":"VEC2",
		"componentType":5126,
		"count":926,
		"byteOffset":24,
		"max":[1.0,
		1.0]
	},
	{
		"bufferView":14,
		"min":[0],
		"type":"SCALAR",
		"componentType":5123,
		"count":480,
		"byteOffset":0,
		"max":[118]
	},
	{
		"bufferView":15,
		"min":[9.384053230285645,
		92.99732208251953,
		-9.265143394470215],
		"type":"VEC3",
		"componentType":5126,
		"count":119,
		"byteOffset":0,
		"max":[25.449560165405275,
		98.44799041748047,
		6.800363540649414]
	},
	{
		"bufferView":15,
		"min":[-0.9999688267707825,
		-1.0,
		-1.0],
		"type":"VEC3",
		"componentType":5126,
		"count":119,
		"byteOffset":12,
		"max":[1.0,
		1.0,
		1.0]
	},
	{
		"bufferView":15,
		"min":[0.0,
		0.0],
		"type":"VEC2",
		"componentType":5126,
		"count":119,
		"byteOffset":24,
		"max":[1.0,
		1.0]
	},
	{
		"bufferView":16,
		"min":[0],
		"type":"SCALAR",
		"componentType":5123,
		"count":960,
		"byteOffset":0,
		"max":[237]
	},
	{
		"bufferView":17,
		"min":[10.292766571044922,
		86.74900817871094,
		-8.356430053710938],
		"type":"VEC3",
		"componentType":5126,
		"count":238,
		"byteOffset":0,
		"max":[24.540847778320314,
		176.53672790527345,
		5.891650199890137]
	},
	{
		"bufferView":17,
		"min":[-0.9999688267707825,
		-1.0,
		-1.0],
		"type":"VEC3",
		"componentType":5126,
		"count":238,
		"byteOffset":12,
		"max":[1.0,
		1.0,
		1.0]
	},
	{
		"bufferView":17,
		"min":[0.0,
		0.0],
		"type":"VEC2",
		"componentType":5126,
		"count":238,
		"byteOffset":24,
		"max":[1.0,
		1.0]
	},
	{
		"bufferView":18,
		"min":[0],
		"type":"SCALAR",
		"componentType":5123,
		"count":768,
		"byteOffset":0,
		"max":[203]
	},
	{
		"bufferView":19,
		"min":[6.447386264801025,
		165.18130493164063,
		-12.201810836791993],
		"type":"VEC3",
		"componentType":5126,
		"count":204,
		"byteOffset":0,
		"max":[28.386226654052736,
		170.19467163085938,
		9.737030982971192]
	},
	{
		"bufferView":19,
		"min":[-1.0,
		-1.0,
		-1.0],
		"type":"VEC3",
		"componentType":5126,
		"count":204,
		"byteOffset":12,
		"max":[0.9999688267707825,
		1.0,
		0.9999688267707825]
	},
	{
		"bufferView":19,
		"min":[0.0,
		0.0],
		"type":"VEC2",
		"componentType":5126,
		"count":204,
		"byteOffset":24,
		"max":[1.0,
		1.0]
	},
	{
		"bufferView":20,
		"min":[0],
		"type":"SCALAR",
		"componentType":5123,
		"count":7962,
		"byteOffset":0,
		"max":[2120]
	},
	{
		"bufferView":21,
		"min":[-20.35896873474121,
		75.4610366821289,
		-20.48871612548828],
		"type":"VEC3",
		"componentType":5126,
		"count":2121,
		"byteOffset":0,
		"max":[20.618465423583986,
		108.82502746582031,
		20.48871612548828]
	},
	{
		"bufferView":21,
		"min":[-1.0,
		-1.0,
		-1.0],
		"type":"VEC3",
		"componentType":5126,
		"count":2121,
		"byteOffset":12,
		"max":[1.0,
		1.0,
		1.0]
	},
	{
		"bufferView":21,
		"min":[0.0,
		0.0],
		"type":"VEC2",
		"componentType":5126,
		"count":2121,
		"byteOffset":24,
		"max":[1.0,
		1.0]
	},
	{
		"bufferView":22,
		"min":[0.0],
		"type":"SCALAR",
		"componentType":5126,
		"count":2,
		"byteOffset":0,
		"max":[3.0]
	},
	{
		"bufferView":22,
		"min":[4.2675886154174809,
		-15.012422561645508,
		-0.2924172878265381],
		"type":"VEC3",
		"componentType":5126,
		"count":2,
		"byteOffset":8,
		"max":[4.2675886154174809,
		-15.012422561645508,
		-0.2924172878265381]
	},
	{
		"bufferView":23,
		"min":[0.0],
		"type":"SCALAR",
		"componentType":5126,
		"count":5,
		"byteOffset":0,
		"max":[3.0]
	},
	{
		"bufferView":23,
		"min":[0.0,
		-0.9944469332695007,
		0.0,
		-0.8979515433311462],
		"type":"VEC4",
		"componentType":5126,
		"count":5,
		"byteOffset":20,
		"max":[0.0,
		0.9999741911888123,
		0.0,
		0.7859450578689575]
	},
	{
		"bufferView":24,
		"min":[0.0],
		"type":"SCALAR",
		"componentType":5126,
		"count":2,
		"byteOffset":0,
		"max":[3.0]
	},
	{
		"bufferView":24,
		"min":[1.0,
		1.0,
		1.0],
		"type":"VEC3",
		"componentType":5126,
		"count":2,
		"byteOffset":8,
		"max":[1.0,
		1.0,
		1.0]
	},
	{
		"bufferView":25,
		"min":[0],
		"type":"SCALAR",
		"componentType":5123,
		"count":672,
		"byteOffset":0,
		"max":[150]
	},
	{
		"bufferView":26,
		"min":[-24.234203338623048,
		27.785009384155275,
		12.252889633178711],
		"type":"VEC3",
		"componentType":5126,
		"count":151,
		"byteOffset":0,
		"max":[-17.356796264648439,
		34.67540740966797,
		19.130294799804689]
	},
	{
		"bufferView":26,
		"min":[-0.9981141686439514,
		-0.9999999403953552,
		-0.998114287853241],
		"type":"VEC3",
		"componentType":5126,
		"count":151,
		"byteOffset":12,
		"max":[0.9981141686439514,
		0.9999999403953552,
		0.9981143474578857]
	},
	{
		"bufferView":26,
		"min":[0.0,
		0.0],
		"type":"VEC2",
		"componentType":5126,
		"count":151,
		"byteOffset":24,
		"max":[1.0,
		1.0]
	},
	{
		"bufferView":27,
		"min":[0.0],
		"type":"SCALAR",
		"componentType":5126,
		"count":7,
		"byteOffset":0,
		"max":[3.0]
	},
	{
		"bufferView":27,
		"min":[4.3545427322387699,
		14.759896278381348,
		-0.35513797402381899],
		"type":"VEC3",
		"componentType":5126,
		"count":7,
		"byteOffset":28,
		"max":[4.3545427322387699,
		14.759896278381348,
		-0.35513797402381899]
	},
	{
		"bufferView":28,
		"min":[0.0],
		"type":"SCALAR",
		"componentType":5126,
		"count":8,
		"byteOffset":0,
		"max":[3.0]
	},
	{
		"bufferView":28,
		"min":[-8.457187226970761e-18,
		-0.6966700553894043,
		-1.9327156076001523e-17,
		-0.9911832213401794],
		"type":"VEC4",
		"componentType":5126,
		"count":8,
		"byteOffset":32,
		"max":[0.0,
		0.9996812343597412,
		0.0,
		0.8385862112045288]
	},
	{
		"bufferView":29,
		"min":[0.0],
		"type":"SCALAR",
		"componentType":5126,
		"count":7,
		"byteOffset":0,
		"max":[3.0]
	},
	{
		"bufferView":29,
		"min":[1.0,
		1.0,
		1.0],
		"type":"VEC3",
		"componentType":5126,
		"count":7,
		"byteOffset":28,
		"max":[1.0,
		1.0,
		1.0]
	},
	{
		"bufferView":30,
		"min":[0],
		"type":"SCALAR",
		"componentType":5123,
		"count":36,
		"byteOffset":0,
		"max":[23]
	},
	{
		"bufferView":31,
		"min":[-38.335174560546878,
		-5.3351731300354,
		-38.335174560546878],
		"type":"VEC3",
		"componentType":5126,
		"count":24,
		"byteOffset":0,
		"max":[38.335174560546878,
		5.3351731300354,
		38.335174560546878]
	},
	{
		"bufferView":31,
		"min":[-1.0,
		-1.0,
		-1.0],
		"type":"VEC3",
		"componentType":5126,
		"count":24,
		"byteOffset":12,
		"max":[1.0,
		1.0,
		1.0]
	},
	{
		"bufferView":31,
		"min":[0.0,
		0.0],
		"type":"VEC2",
		"componentType":5126,
		"count":24,
		"byteOffset":24,
		"max":[1.0,
		1.0]
	}],
	"bufferViews":[{
		"buffer":0,
		"byteOffset":0,
		"byteLength":280
	},
	{
		"buffer":0,
		"byteOffset":280,
		"byteLength":140
	},
	{
		"buffer":0,
		"byteOffset":420,
		"byteLength":112
	},
	{
		"buffer":1,
		"byteOffset":0,
		"byteLength":2688,
		"target":34963
	},
	{
		"buffer":1,
		"byteOffset":2688,
		"byteLength":9664,
		"target":34962,
		"byteStride":32
	},
	{
		"buffer":2,
		"byteOffset":0,
		"byteLength":80
	},
	{
		"buffer":2,
		"byteOffset":80,
		"byteLength":100
	},
	{
		"buffer":2,
		"byteOffset":180,
		"byteLength":80
	},
	{
		"buffer":3,
		"byteOffset":0,
		"byteLength":1536,
		"target":34963
	},
	{
		"buffer":3,
		"byteOffset":1536,
		"byteLength":6400,
		"target":34962,
		"byteStride":32
	},
	{
		"buffer":4,
		"byteOffset":0,
		"byteLength":1140,
		"target":34963
	},
	{
		"buffer":4,
		"byteOffset":1140,
		"byteLength":4288,
		"target":34962,
		"byteStride":32
	},
	{
		"buffer":5,
		"byteOffset":0,
		"byteLength":7992,
		"target":34963
	},
	{
		"buffer":5,
		"byteOffset":7992,
		"byteLength":29632,
		"target":34962,
		"byteStride":32
	},
	{
		"buffer":6,
		"byteOffset":0,
		"byteLength":960,
		"target":34963
	},
	{
		"buffer":6,
		"byteOffset":960,
		"byteLength":3808,
		"target":34962,
		"byteStride":32
	},
	{
		"buffer":7,
		"byteOffset":0,
		"byteLength":1920,
		"target":34963
	},
	{
		"buffer":7,
		"byteOffset":1920,
		"byteLength":7616,
		"target":34962,
		"byteStride":32
	},
	{
		"buffer":8,
		"byteOffset":0,
		"byteLength":1536,
		"target":34963
	},
	{
		"buffer":8,
		"byteOffset":1536,
		"byteLength":6528,
		"target":34962,
		"byteStride":32
	},
	{
		"buffer":9,
		"byteOffset":0,
		"byteLength":15924,
		"target":34963
	},
	{
		"buffer":9,
		"byteOffset":15924,
		"byteLength":67872,
		"target":34962,
		"byteStride":32
	},
	{
		"buffer":10,
		"byteOffset":0,
		"byteLength":32
	},
	{
		"buffer":10,
		"byteOffset":32,
		"byteLength":100
	},
	{
		"buffer":10,
		"byteOffset":132,
		"byteLength":32
	},
	{
		"buffer":11,
		"byteOffset":0,
		"byteLength":1344,
		"target":34963
	},
	{
		"buffer":11,
		"byteOffset":1344,
		"byteLength":4832,
		"target":34962,
		"byteStride":32
	},
	{
		"buffer":12,
		"byteOffset":0,
		"byteLength":112
	},
	{
		"buffer":12,
		"byteOffset":112,
		"byteLength":160
	},
	{
		"buffer":12,
		"byteOffset":272,
		"byteLength":112
	},
	{
		"buffer":13,
		"byteOffset":0,
		"byteLength":72,
		"target":34963
	},
	{
		"buffer":13,
		"byteOffset":72,
		"byteLength":768,
		"target":34962,
		"byteStride":32
	}],
	"buffers":[{
		"uri":"data:application/octet-stream;base64,",
		"byteLength":532
	},
	{
		"uri":"data:application/octet-stream;base64,",
		"byteLength":12352
	},
	{
		"uri":"data:application/octet-stream;base64,",
		"byteLength":260
	},
	{
		"uri":"data:application/octet-stream;base64,",
		"byteLength":7936
	},
	{
		"uri":"data:application/octet-stream;base64,",
		"byteLength":5428
	},
	{
		"uri":"data:application/octet-stream;base64,",
		"byteLength":37624
	},
	{
		"uri":"data:application/octet-stream;base64,",
		"byteLength":4768
	},
	{
		"uri":"data:application/octet-stream;base64,",
		"byteLength":9536
	},
	{
		"uri":"data:application/octet-stream;base64,",
		"byteLength":8064
	},
	{
		"uri":"data:application/octet-stream;base64,",
		"byteLength":83796
	},
	{
		"uri":"data:application/octet-stream;base64,",
		"byteLength":164
	},
	{
		"uri":"data:application/octet-stream;base64,",
		"byteLength":6176
	},
	{
		"uri":"data:application/octet-stream;base64,",
		"byteLength":384
	},
	{
		"uri":"data:application/octet-stream;base64,",
		"byteLength":840
	}],
	"materials":[{
		"pbrMetallicRoughness":{
			"baseColorFactor":[1.0,
			0.63,
			0.8766666666666668,
			1.0],
			"metallicFactor":0.0,
			"roughnessFactor":0.5
		},
		"emissiveFactor":[0.0,
		0.0,
		0.0],
		"alphaMode":"OPAQUE",
		"doubleSided":false,
		"name":"Материал.4"
	},
	{
		"pbrMetallicRoughness":{
			"baseColorFactor":[0.53,
			0.7415000000000018,
			1.0,
			1.0],
			"metallicFactor":0.0,
			"roughnessFactor":0.5
		},
		"emissiveFactor":[0.0,
		0.0,
		0.0],
		"alphaMode":"OPAQUE",
		"doubleSided":false,
		"name":"Материал.10"
	},
	{
		"pbrMetallicRoughness":{
			"baseColorFactor":[0.3994700000000001,
			0.31819999999999989,
			0.86,
			1.0],
			"metallicFactor":0.0,
			"roughnessFactor":0.5
		},
		"emissiveFactor":[0.0,
		0.0,
		0.0],
		"alphaMode":"OPAQUE",
		"doubleSided":false,
		"name":"Материал.1"
	},
	{
		"pbrMetallicRoughness":{
			"baseColorFactor":[1.0,
			0.7270000000000001,
			0.61,
			1.0],
			"metallicFactor":1.0,
			"roughnessFactor":1.0
		},
		"emissiveFactor":[0.0,
		0.0,
		0.0],
		"alphaMode":"OPAQUE",
		"doubleSided":false,
		"name":"Материал.5"
	},
	{
		"pbrMetallicRoughness":{
			"baseColorFactor":[0.3994700000000001,
			0.31819999999999989,
			0.86,
			1.0],
			"metallicFactor":0.37,
			"roughnessFactor":0.21
		},
		"emissiveFactor":[0.0,
		0.0,
		0.0],
		"alphaMode":"OPAQUE",
		"doubleSided":false,
		"name":"Материал.2"
	},
	{
		"pbrMetallicRoughness":{
			"baseColorFactor":[1.0,
			1.0,
			1.0,
			1.0],
			"metallicFactor":1.0,
			"roughnessFactor":1.0
		},
		"emissiveFactor":[0.0,
		0.0,
		0.0],
		"alphaMode":"OPAQUE",
		"doubleSided":false,
		"name":"Материал.9"
	}],
	"animations":[{
		"samplers":[{
			"input":0,
			"interpolation":"CUBICSPLINE",
			"output":1
		},
		{
			"input":2,
			"interpolation":"LINEAR",
			"output":3
		},
		{
			"input":4,
			"interpolation":"LINEAR",
			"output":5
		},
		{
			"input":10,
			"interpolation":"LINEAR",
			"output":11
		},
		{
			"input":12,
			"interpolation":"LINEAR",
			"output":13
		},
		{
			"input":14,
			"interpolation":"LINEAR",
			"output":15
		},
		{
			"input":44,
			"interpolation":"LINEAR",
			"output":45
		},
		{
			"input":46,
			"interpolation":"LINEAR",
			"output":47
		},
		{
			"input":48,
			"interpolation":"LINEAR",
			"output":49
		},
		{
			"input":54,
			"interpolation":"LINEAR",
			"output":55
		},
		{
			"input":56,
			"interpolation":"LINEAR",
			"output":57
		},
		{
			"input":58,
			"interpolation":"LINEAR",
			"output":59
		}],
		"channels":[{
			"sampler":0,
			"target":{
				"node":0,
				"path":"translation"
			}
		},
		{
			"sampler":1,
			"target":{
				"node":0,
				"path":"rotation"
			}
		},
		{
			"sampler":2,
			"target":{
				"node":0,
				"path":"scale"
			}
		},
		{
			"sampler":3,
			"target":{
				"node":1,
				"path":"translation"
			}
		},
		{
			"sampler":4,
			"target":{
				"node":1,
				"path":"rotation"
			}
		},
		{
			"sampler":5,
			"target":{
				"node":1,
				"path":"scale"
			}
		},
		{
			"sampler":6,
			"target":{
				"node":9,
				"path":"translation"
			}
		},
		{
			"sampler":7,
			"target":{
				"node":9,
				"path":"rotation"
			}
		},
		{
			"sampler":8,
			"target":{
				"node":9,
				"path":"scale"
			}
		},
		{
			"sampler":9,
			"target":{
				"node":10,
				"path":"translation"
			}
		},
		{
			"sampler":10,
			"target":{
				"node":10,
				"path":"rotation"
			}
		},
		{
			"sampler":11,
			"target":{
				"node":10,
				"path":"scale"
			}
		}]
	}]
}